<?xml version="1.0" standalone="no"?>
<svg xmlns="http://www.w3.org/2000/svg" xmlns:xlink="http://www.w3.org/1999/xlink" width="338pt" height="864pt" viewBox="0.00 0.00 338 864">
<g id="graph0" class="graph" transform="translate(64.18319284670642,689.9157695531013) scale(0.7578582832551987)" data-name="main.c.012t.cfg">

<polygon fill="white" stroke="none" points="-4,4 -4,-860 334,-860 334,4 -4,4"/>
<g id="clust1" class="cluster" data-name="cluster_main">

<polygon fill="none" stroke="rgb(229,229,229)" stroke-dasharray="5,2" points="8,-8 8,-848 322,-848 322,-8 8,-8"/>
<text text-anchor="middle" x="165" y="-831.4" font-family="Times,serif" font-size="14.00" style="">main ()</text>
</g>
<g id="clust2" class="cluster" data-name="cluster_0_1">

<polygon fill="rgb(251,251,251)" stroke="rgb(255,255,255)" stroke-width="2" points="164,-191.4 164,-543.8 314,-543.8 314,-191.4 164,-191.4"/>
<text text-anchor="middle" x="189.69" y="-527.2" font-family="Times,serif" font-size="14.00" style="">loop 1</text>
</g>
<!-- fn_0_basic_block_4 -->
<g id="node1" class="node" pointer-events="visible" data-name="fn_0_basic_block_4">

<polygon fill="lightgrey" stroke="black" points="172.36,-385.7 172.36,-510.5 305.64,-510.5 305.64,-385.7 172.36,-385.7"/>
<text text-anchor="start" x="180.36" y="-493.9" font-family="Times,serif" font-size="14.00">&lt;bb 4&gt;:</text>
<polyline fill="none" stroke="black" points="172.36,-485.7 305.64,-485.7" style=""/>
<text text-anchor="start" x="180.36" y="-469.1" font-family="Times,serif" font-size="14.00">n.0_1 = n;</text>
<polyline fill="none" stroke="black" points="172.36,-460.9 305.64,-460.9" style=""/>
<text text-anchor="start" x="180.36" y="-444.3" font-family="Times,serif" font-size="14.00">if (i &lt; n.0_1)</text>
<text text-anchor="start" x="180.36" y="-427.5" font-family="Times,serif" font-size="14.00">  goto &lt;bb 3&gt;; [INV]</text>
<text text-anchor="start" x="180.36" y="-410.7" font-family="Times,serif" font-size="14.00">else</text>
<text text-anchor="start" x="180.36" y="-393.9" font-family="Times,serif" font-size="14.00">  goto &lt;bb 5&gt;; [INV]</text>
</g>
<!-- fn_0_basic_block_3 -->
<g id="node2" class="node" pointer-events="visible" data-name="fn_0_basic_block_3">

<polygon fill="lightgrey" stroke="black" points="185.05,-199.9 185.05,-348.7 292.95,-348.7 292.95,-199.9 185.05,-199.9"/>
<text text-anchor="start" x="193.05" y="-332.1" font-family="Times,serif" font-size="14.00">&lt;bb 3&gt;:</text>
<polyline fill="none" stroke="black" points="185.05,-323.9 292.95,-323.9" style=""/>
<text text-anchor="start" x="193.05" y="-307.3" font-family="Times,serif" font-size="14.00">t = b;</text>
<polyline fill="none" stroke="black" points="185.05,-299.1 292.95,-299.1" style=""/>
<text text-anchor="start" x="193.05" y="-282.5" font-family="Times,serif" font-size="14.00">b = a + b;</text>
<polyline fill="none" stroke="black" points="185.05,-274.3 292.95,-274.3" style=""/>
<text text-anchor="start" x="193.05" y="-257.7" font-family="Times,serif" font-size="14.00">printf ("%d", b);</text>
<polyline fill="none" stroke="black" points="185.05,-249.5 292.95,-249.5" style=""/>
<text text-anchor="start" x="193.05" y="-232.9" font-family="Times,serif" font-size="14.00">a = t;</text>
<polyline fill="none" stroke="black" points="185.05,-224.7 292.95,-224.7" style=""/>
<text text-anchor="start" x="193.05" y="-208.1" font-family="Times,serif" font-size="14.00">i = i + 1;</text>
</g>
<!-- fn_0_basic_block_4&#45;&gt;fn_0_basic_block_3 -->
<g id="edge4" class="edge" data-name="fn_0_basic_block_4-&gt;fn_0_basic_block_3">

<path fill="none" stroke="black" stroke-width="2" d="M239,-385.2C239,-373.2 239,-367.95 239,-359.33" style=""/>
<polygon fill="black" stroke="black" stroke-width="2" points="242.5,-359.2 239,-349.2 235.5,-359.2 242.5,-359.2" style=""/>
</g>
<!-- fn_0_basic_block_5 -->
<g id="node6" class="node" pointer-events="visible" data-name="fn_0_basic_block_5">

<polygon fill="lightgrey" stroke="black" points="36.1,-237.1 36.1,-311.5 155.9,-311.5 155.9,-237.1 36.1,-237.1"/>
<text text-anchor="start" x="44.1" y="-294.9" font-family="Times,serif" font-size="14.00">&lt;bb 5&gt;:</text>
<polyline fill="none" stroke="black" points="36.1,-286.7 155.9,-286.7" style=""/>
<text text-anchor="start" x="44.1" y="-270.1" font-family="Times,serif" font-size="14.00">n = {CLOBBER};</text>
<polyline fill="none" stroke="black" points="36.1,-261.9 155.9,-261.9" style=""/>
<text text-anchor="start" x="44.1" y="-245.3" font-family="Times,serif" font-size="14.00">D.2324 = 0;</text>
</g>
<!-- fn_0_basic_block_4&#45;&gt;fn_0_basic_block_5 -->
<g id="edge5" class="edge" data-name="fn_0_basic_block_4-&gt;fn_0_basic_block_5">

<path fill="none" stroke="black" stroke-width="2" d="M239,-385.2C239,-346.62 194.31,-366.86 160,-349.2 134.34,-335.99 104.35,-342.86 97.46,-322.43" style=""/>
<polygon fill="black" stroke="black" stroke-width="2" points="100.89,-321.7 96,-312.3 93.96,-322.7 100.89,-321.7" style=""/>
</g>
<!-- fn_0_basic_block_3&#45;&gt;fn_0_basic_block_4 -->
<g id="edge3" class="edge" data-name="fn_0_basic_block_3-&gt;fn_0_basic_block_4">

<path fill="none" stroke="blue" stroke-width="2" stroke-dasharray="1,5" d="M239,-199.3C239,-175.32 275.58,-183.77 292.95,-200.3 316.55,-222.75 335.5,-479.79 305.64,-510.1 297.6,-518.26 262.13,-523.26 246.47,-518.25" style=""/>
<polygon fill="blue" stroke="blue" stroke-width="2" points="248.65,-515.48 239,-511.1 243.81,-520.54 248.65,-515.48" style=""/>
</g>
<!-- fn_0_basic_block_0 -->
<g id="node3" class="node" pointer-events="visible" data-name="fn_0_basic_block_0">

<polygon fill="white" stroke="black" points="239,-815.2 177.75,-797.2 239,-779.2 300.25,-797.2 239,-815.2"/>
<polyline fill="none" stroke="black" points="189.26,-800.58 189.26,-793.82" style=""/>
<polyline fill="none" stroke="black" points="227.49,-782.58 250.51,-782.58" style=""/>
<polyline fill="none" stroke="black" points="288.74,-793.82 288.74,-800.58" style=""/>
<polyline fill="none" stroke="black" points="250.51,-811.82 227.49,-811.82" style=""/>
<text text-anchor="middle" x="239" y="-793" font-family="Times,serif" font-size="14.00">ENTRY</text>
</g>
<!-- fn_0_basic_block_1 -->
<g id="node4" class="node" pointer-events="visible" data-name="fn_0_basic_block_1">

<polygon fill="white" stroke="black" points="96,-52 49.09,-34 96,-16 142.91,-34 96,-52"/>
<polyline fill="none" stroke="black" points="60.3,-38.3 60.3,-29.7" style=""/>
<polyline fill="none" stroke="black" points="84.8,-20.3 107.2,-20.3" style=""/>
<polyline fill="none" stroke="black" points="131.7,-29.7 131.7,-38.3" style=""/>
<polyline fill="none" stroke="black" points="107.2,-47.7 84.8,-47.7" style=""/>
<text text-anchor="middle" x="96" y="-29.8" font-family="Times,serif" font-size="14.00">EXIT</text>
</g>
<!-- fn_0_basic_block_0&#45;&gt;fn_0_basic_block_1 -->
<!-- fn_0_basic_block_2 -->
<g id="node5" class="node" pointer-events="visible" data-name="fn_0_basic_block_2">

<polygon fill="lightgrey" stroke="black" points="175.86,-552.3 175.86,-742.7 302.14,-742.7 302.14,-552.3 175.86,-552.3"/>
<text text-anchor="start" x="183.86" y="-726.1" font-family="Times,serif" font-size="14.00">&lt;bb 2&gt;:</text>
<polyline fill="none" stroke="black" points="175.86,-717.9 302.14,-717.9" style=""/>
<text text-anchor="start" x="183.86" y="-701.3" font-family="Times,serif" font-size="14.00">a = 0;</text>
<polyline fill="none" stroke="black" points="175.86,-693.1 302.14,-693.1" style=""/>
<text text-anchor="start" x="183.86" y="-676.5" font-family="Times,serif" font-size="14.00">b = 1;</text>
<polyline fill="none" stroke="black" points="175.86,-668.3 302.14,-668.3" style=""/>
<text text-anchor="start" x="183.86" y="-651.7" font-family="Times,serif" font-size="14.00">i = 1;</text>
<polyline fill="none" stroke="black" points="175.86,-643.5 302.14,-643.5" style=""/>
<text text-anchor="start" x="183.86" y="-626.9" font-family="Times,serif" font-size="14.00">scanf ("%d", &amp;n);</text>
<polyline fill="none" stroke="black" points="175.86,-618.7 302.14,-618.7" style=""/>
<text text-anchor="start" x="183.86" y="-602.1" font-family="Times,serif" font-size="14.00">printf ("%d", a);</text>
<polyline fill="none" stroke="black" points="175.86,-593.9 302.14,-593.9" style=""/>
<text text-anchor="start" x="183.86" y="-577.3" font-family="Times,serif" font-size="14.00">printf ("%d", b);</text>
<text text-anchor="start" x="183.86" y="-560.5" font-family="Times,serif" font-size="14.00">goto &lt;bb 4&gt;; [INV]</text>
</g>
<!-- fn_0_basic_block_0&#45;&gt;fn_0_basic_block_2 -->
<g id="edge1" class="edge" data-name="fn_0_basic_block_0-&gt;fn_0_basic_block_2">

<path fill="none" stroke="blue" stroke-width="2" d="M239,-779.2C239,-767.2 239,-761.95 239,-753.33" style=""/>
<polygon fill="blue" stroke="blue" stroke-width="2" points="242.5,-753.2 239,-743.2 235.5,-753.2 242.5,-753.2" style=""/>
</g>
<!-- fn_0_basic_block_2&#45;&gt;fn_0_basic_block_4 -->
<g id="edge2" class="edge" data-name="fn_0_basic_block_2-&gt;fn_0_basic_block_4">

<path fill="none" stroke="blue" stroke-width="2" d="M239,-551.8C239,-537.67 239,-531.82 239,-521.31" style=""/>
<polygon fill="blue" stroke="blue" stroke-width="2" points="242.5,-521.1 239,-511.1 235.5,-521.1 242.5,-521.1" style=""/>
</g>
<!-- fn_0_basic_block_6 -->
<g id="node7" class="node" pointer-events="visible" data-name="fn_0_basic_block_6">

<polygon fill="lightgrey" stroke="black" points="46.79,-88.5 46.79,-162.9 145.21,-162.9 145.21,-88.5 46.79,-88.5"/>
<text text-anchor="start" x="54.79" y="-146.3" font-family="Times,serif" font-size="14.00">&lt;bb 6&gt;:</text>
<polyline fill="none" stroke="black" points="46.79,-138.1 145.21,-138.1" style=""/>
<text text-anchor="start" x="54.79" y="-121.5" font-family="Times,serif" font-size="14.00">&lt;L3&gt;:</text>
<polyline fill="none" stroke="black" points="46.79,-113.3 145.21,-113.3" style=""/>
<text text-anchor="start" x="54.79" y="-96.7" font-family="Times,serif" font-size="14.00">return D.2324;</text>
</g>
<!-- fn_0_basic_block_5&#45;&gt;fn_0_basic_block_6 -->
<g id="edge6" class="edge" data-name="fn_0_basic_block_5-&gt;fn_0_basic_block_6">

<path fill="none" stroke="blue" stroke-width="2" d="M96,-236.3C96,-207.57 96,-197.95 96,-173.55" style=""/>
<polygon fill="blue" stroke="blue" stroke-width="2" points="99.5,-173.4 96,-163.4 92.5,-173.4 99.5,-173.4" style=""/>
</g>
<!-- fn_0_basic_block_6&#45;&gt;fn_0_basic_block_1 -->
<g id="edge7" class="edge" data-name="fn_0_basic_block_6-&gt;fn_0_basic_block_1">

<path fill="none" stroke="black" stroke-width="2" d="M96,-88C96,-76 96,-70.75 96,-62.12" style=""/>
<polygon fill="black" stroke="black" stroke-width="2" points="99.5,-62 96,-52 92.5,-62 99.5,-62" style=""/>
</g>
</g>
</svg>